# xmcd
# 
# Track frame offsets:
#     150
#     15542
#     44925
#     66295
#     81827
#     97292
#     115925
#     139490
#     166490
#     195992
#     207740
#     220405
# 
# Disc length: 3285
# 
# Revision: 1
# Processed by: cddbd v1.5.2PL0 Copyright (c) Steve Scherf et al.
# Submitted via: fre:ac v1.1beta1pre5
# 
DISCID=c10cd30c
DTITLE=越智順子 - JESSE
DYEAR=2001
DGENRE=J-Jazz
TTITLE0=JUST ONE OF THOSE THINGS
TTITLE1=LOVE DANCE
TTITLE2=SHAPE OF MY HEART
TTITLE3=SISTER SADIE
TTITLE4=Lover,Come Back To Me (恋人よ我に帰れ)
TTITLE5=DANNY BOY
TTITLE6=YOU GOTTA BE
TTITLE7=Don't You Worry 'bout A Thing (くよくよするなよ)
TTITLE8=Everything Must Change (移りゆくすべてに)
TTITLE9=BY BY BLACKBIRD
TTITLE10=Jesse (我が心のジェシー)
TTITLE11=A NATURAL WOMAN (BONUS TRACK)
EXTD=YEAR: 2001
EXTT0=
EXTT1=
EXTT2=
EXTT3=
EXTT4=
EXTT5=
EXTT6=
EXTT7=
EXTT8=
EXTT9=
EXTT10=
EXTT11=
PLAYORDER=
